# xmcd
#
# Track frame offsets:
#	150
#	14103
#	28306
#	48974
#	69627
#	87281
#	103389
#	122752
#	142086
#	158839
#	175877
#	196141
#	212504
#	230097
#	246761
#	265824
#	283897
#
# Disc length: 4002 seconds
#
# Revision: 2
# Processed by: cddbd v1.5.2PL0 Copyright (c) Steve Scherf et al.
# Submitted via: EasyCDDAExtractor 11.0.0.1
#
DISCID=050fa011
DTITLE=Various Artist - Kiss FM - La Mejor Musica - CD 2
DYEAR=2007
DGENRE=Pop-Folk
TTITLE0=Luz - Un Nuevo Dia Brillará
TTITLE1=Julieta Venegas - Me Voy
TTITLE2=Robbie Williams - Tripping
TTITLE3=Aleks Syntek y Ana Torroja - Duele El Amor
TTITLE4=La Oreja De Van Gogh - Muñeca de Trapo
TTITLE5=Corinne Bailey Rae - Put Your Records On
TTITLE6=Maroon 5 - She Will Be Loved
TTITLE7=Efecto Mariposa con Javier Ojeda - No Me Crees
TTITLE8=Amaral - Marta, Sebas, Guille y Los Demás
TTITLE9=Sheryl Crow - The First Cut Is The Deepest
TTITLE10=Coldplay - Trouble
TTITLE11=Keane - Bend and Break
TTITLE12=Hoobastank - The Reason
TTITLE13=Coti con Julieta Venegas y Paulina Rubio - Nada fue en error (directo
TTITLE13=)
TTITLE14=El Sueño de Morfeo - Ojos de Cielo
TTITLE15=Tiziano Ferro - Perdona
TTITLE16=Jamelia - Superstar
EXTD=YEAR: 2007
EXTT0=
EXTT1=
EXTT2=
EXTT3=
EXTT4=
EXTT5=
EXTT6=
EXTT7=
EXTT8=
EXTT9=
EXTT10=
EXTT11=
EXTT12=
EXTT13=
EXTT14=
EXTT15=
EXTT16=
PLAYORDER=
